HIERARCHY
ROOT GLTF_created_5_rootJoint
{
	OFFSET 0.000001 -0.000001 2.772804
	CHANNELS 6 Xposition Yposition Zposition Xrotation Yrotation Zrotation
	JOINT Bip001_176
	{
		OFFSET -3.294814 -0.859898 2.885366
		CHANNELS 6 Xposition Yposition Zposition Xrotation Yrotation Zrotation
		JOINT Bip001 Pelvis_177
		{
			OFFSET 2.813947 0.000004 0.000001
			CHANNELS 6 Xposition Yposition Zposition Xrotation Yrotation Zrotation
			JOINT Bip001 Spine_178
			{
				OFFSET 0.000000 -0.000760 0.718798
				CHANNELS 6 Xposition Yposition Zposition Xrotation Yrotation Zrotation
				JOINT Bip001 Spine1_193
				{
					OFFSET 0.000000 -0.000100 0.955110
					CHANNELS 6 Xposition Yposition Zposition Xrotation Yrotation Zrotation
					JOINT Bip001 Neck_194
					{
						OFFSET 0.000000 0.000241 1.429951
						CHANNELS 6 Xposition Yposition Zposition Xrotation Yrotation Zrotation
						JOINT Bip001 R Clavicle_203
						{
							OFFSET 0.296234 0.000619 -0.349928
							CHANNELS 6 Xposition Yposition Zposition Xrotation Yrotation Zrotation
							JOINT Bip001 R UpperArm_204
							{
								OFFSET 0.938765 0.000001 0.000001
								CHANNELS 6 Xposition Yposition Zposition Xrotation Yrotation Zrotation
								JOINT Bip001 R Forearm_205
								{
									OFFSET 2.873482 -0.100144 -0.001595
									CHANNELS 6 Xposition Yposition Zposition Xrotation Yrotation Zrotation
									JOINT Bip001 R Hand_206
									{
										OFFSET 2.303203 0.063001 -0.002708
										CHANNELS 6 Xposition Yposition Zposition Xrotation Yrotation Zrotation
										End Site
										{
											OFFSET 2.303200 0.063000 -0.002709
										}
									}
								}
							}
						}
						JOINT Bip001 L Clavicle_197
						{
							OFFSET -0.296234 0.000619 -0.349927
							CHANNELS 6 Xposition Yposition Zposition Xrotation Yrotation Zrotation
							JOINT Bip001 L UpperArm_198
							{
								OFFSET -0.917744 -0.000001 -0.000001
								CHANNELS 6 Xposition Yposition Zposition Xrotation Yrotation Zrotation
								JOINT Bip001 L Forearm_199
								{
									OFFSET -2.835649 -0.009101 -0.053201
									CHANNELS 6 Xposition Yposition Zposition Xrotation Yrotation Zrotation
									JOINT Bip001 L Hand_200
									{
										OFFSET -2.429367 -0.003952 -0.045617
										CHANNELS 6 Xposition Yposition Zposition Xrotation Yrotation Zrotation
										End Site
										{
											OFFSET -2.429362 -0.003952 -0.045617
										}
									}
								}
							}
						}
						JOINT Bip001 Head_195
						{
							OFFSET 0.000000 0.000619 1.184894
							CHANNELS 6 Xposition Yposition Zposition Xrotation Yrotation Zrotation
							End Site
							{
								OFFSET -0.000001 -0.000000 0.458479
							}
						}
					}
				}
				JOINT Bip001 R Thigh_186
				{
					OFFSET 0.827130 0.000761 -0.718799
					CHANNELS 6 Xposition Yposition Zposition Xrotation Yrotation Zrotation
					JOINT Bip001 R Calf_187
					{
						OFFSET -0.000001 -0.015873 -2.979393
						CHANNELS 6 Xposition Yposition Zposition Xrotation Yrotation Zrotation
						JOINT Bip001 R Foot_188
						{
							OFFSET 0.000000 -0.049549 -2.865817
							CHANNELS 6 Xposition Yposition Zposition Xrotation Yrotation Zrotation
							End Site
							{
								OFFSET -0.000001 0.000001 -2.866242
							}
						}
					}
				}
				JOINT Bip001 L Thigh_179
				{
					OFFSET -0.827131 0.000760 -0.718800
					CHANNELS 6 Xposition Yposition Zposition Xrotation Yrotation Zrotation
					JOINT Bip001 L Calf_180
					{
						OFFSET 0.109557 0.030316 -2.863991
						CHANNELS 6 Xposition Yposition Zposition Xrotation Yrotation Zrotation
						JOINT Bip001 L Foot_181
						{
							OFFSET 0.109503 -0.019502 -2.864087
							CHANNELS 6 Xposition Yposition Zposition Xrotation Yrotation Zrotation
							End Site
							{
								OFFSET -0.000001 0.000001 -2.866243
							}
						}
					}
				}
			}
		}
	}
}
MOTION
Frames: 7
Frame Time: 0.041667
0.000001 -0.000001 2.772804 -0.000000 0.000000 -0.000000 -2.847544 1.637209 3.561467 1.516358 -2.454287 -498.483161 2.739709 -0.115760 0.000002 0.000012 7.599674 0.000014 -0.094978 -0.000757 0.712471 1.513549 -4.965269 6.344096 0.000117 -0.000036 0.955414 -21.686165 6.477005 7.914047 -0.000001 0.000242 1.429952 -0.000003 0.000001 -0.000003 0.296233 0.000619 -0.349928 0.343738 -19.724526 1.018325 0.938769 0.000001 -0.000001 150.836545 121.276716 -155.488082 2.873483 -0.100142 -0.001595 -0.919357 0.508677 132.433488 2.303205 0.063001 -0.002709 -6.882583 -40.035079 15.360537 -0.296235 0.000619 -0.349927 0.579562 19.462431 -1.739005 -0.917745 -0.000000 -0.000001 -103.663058 -61.858073 -70.818516 -2.835649 -0.009099 -0.053201 0.591174 -1.443671 -79.563713 -2.429369 -0.003951 -0.045618 -0.303951 22.417944 -32.897883 -0.000000 0.000618 1.184894 -1.082156 5.972230 -12.777394 0.849758 -0.112651 -0.789377 18.750659 -2.293860 -5.719860 -0.000001 -0.015874 -2.979393 -45.047293 -0.000041 -0.000006 -0.000001 -0.049549 -2.865817 23.215917 9.166378 -5.058259 -0.788203 0.069457 -0.646204 6.907569 3.387152 3.073821 0.109557 0.030316 -2.863991 -8.024698 0.030610 -0.305235 0.109504 -0.019503 -2.864087 0.544058 5.371632 11.535472 
0.000001 -0.000001 2.772804 -0.000000 0.000000 -0.000000 -2.715044 1.625530 3.547463 1.772199 -2.171415 -506.250234 2.720720 -0.125475 0.000001 0.000007 8.601873 0.000004 -0.107429 -0.000757 0.710692 1.153973 -5.294411 5.895701 0.000118 -0.000034 0.955417 -22.207252 7.460432 7.898172 0.000000 0.000242 1.429952 0.000000 -0.000001 -0.000005 0.296234 0.000618 -0.349925 0.147008 -20.866834 0.413249 0.938769 0.000002 -0.000000 151.554494 125.424430 -151.475605 2.873485 -0.100142 -0.001597 -0.942991 0.489696 135.459645 2.303204 0.063001 -0.002710 -5.327947 -40.333486 17.359264 -0.296234 0.000618 -0.349925 0.355198 19.024578 -1.089205 -0.917744 -0.000001 -0.000001 -103.636755 -58.190971 -69.218271 -2.835648 -0.009100 -0.053201 0.592162 -1.440543 -79.409391 -2.429366 -0.003952 -0.045618 -1.119082 23.298153 -32.166947 -0.000000 0.000618 1.184894 4.778244 5.987533 -10.454792 0.859022 -0.102313 -0.793760 21.379817 -2.783786 -3.960833 -0.000001 -0.015873 -2.979393 -48.706919 -0.000049 0.000001 -0.000002 -0.049549 -2.865817 22.737367 9.472716 -5.508009 -0.779445 0.066874 -0.641137 6.595713 3.390262 14.333857 0.109557 0.030317 -2.863992 -12.102820 0.062451 -0.457942 0.109504 -0.019502 -2.864087 3.522742 6.346623 8.564844 
0.000001 -0.000001 2.772804 -0.000000 0.000000 -0.000000 -2.586450 1.612044 3.532416 1.832247 -2.192555 -512.870982 2.703279 -0.142806 0.000002 0.000010 9.558343 0.000012 -0.119292 -0.000759 0.708807 0.441662 -5.698312 4.855244 0.000108 -0.000031 0.955430 -23.065301 8.360467 7.271386 0.000000 0.000241 1.429952 0.000003 -0.000000 -0.000005 0.296234 0.000619 -0.349927 0.175007 -20.793227 0.495645 0.938768 0.000002 0.000000 151.887493 127.504715 -148.255007 2.873482 -0.100143 -0.001596 -0.952639 0.481326 136.734691 2.303205 0.062999 -0.002709 -4.881302 -39.816953 17.753714 -0.296234 0.000618 -0.349926 0.152113 18.897124 -0.469774 -0.917745 -0.000001 -0.000001 -101.003383 -54.138316 -66.975189 -2.835649 -0.009100 -0.053201 0.597541 -1.422873 -78.541124 -2.429367 -0.003951 -0.045617 -1.933705 25.117104 -31.590236 0.000001 0.000618 1.184891 9.415600 6.922629 -7.992604 0.867794 -0.078401 -0.799231 22.771106 -4.551802 -6.082450 -0.000001 -0.015873 -2.979392 -50.094523 -0.000048 -0.000009 -0.000001 -0.049549 -2.865818 21.803967 8.778629 -5.779812 -0.772319 0.060903 -0.635029 5.633841 2.976711 23.790741 0.109557 0.030317 -2.863991 -14.062358 0.081600 -0.530429 0.109504 -0.019502 -2.864087 5.454035 7.070812 6.784431 
0.000001 -0.000001 2.772804 -0.000000 0.000000 -0.000000 -2.462005 1.593375 3.520470 1.580655 -2.420345 -518.306993 2.686886 -0.164161 0.000002 0.000008 10.323800 0.000015 -0.128770 -0.000760 0.707166 -0.484996 -6.002401 3.392955 0.000093 -0.000026 0.955446 -24.098502 9.207915 6.230719 -0.000000 0.000240 1.429953 0.000000 -0.000001 -0.000004 0.296234 0.000619 -0.349926 0.535705 -18.648423 1.688579 0.938768 0.000001 -0.000000 150.470324 125.400648 -147.035354 2.873482 -0.100143 -0.001596 -0.937890 0.493964 134.796133 2.303205 0.063000 -0.002710 -6.582845 -37.714703 15.134142 -0.296234 0.000618 -0.349926 -0.048076 18.976026 0.147549 -0.917745 -0.000000 -0.000002 -97.024900 -50.263871 -65.143879 -2.835649 -0.009099 -0.053201 0.603825 -1.400886 -77.465758 -2.429367 -0.003952 -0.045617 -2.666088 27.521271 -31.201680 -0.000000 0.000618 1.184894 8.084536 7.096159 -4.652867 0.875523 -0.045126 -0.803180 21.111416 -9.573745 -18.139246 -0.000000 -0.015873 -2.979393 -47.830841 -0.000044 -0.000006 -0.000001 -0.049549 -2.865817 20.350624 5.920202 -5.317262 -0.766715 0.052230 -0.630246 8.219116 4.083952 29.425244 0.109557 0.030316 -2.863991 -22.603492 0.193522 -0.837138 0.109504 -0.019502 -2.864086 6.930931 8.048199 6.991227 
0.000001 -0.000001 2.772804 -0.000000 0.000000 -0.000000 -2.350558 1.574424 3.490070 1.089883 -2.734991 -522.828359 2.671227 -0.186172 0.000001 0.000010 10.752885 0.000016 -0.134087 -0.000760 0.706199 -1.488940 -6.037663 1.695211 0.000073 -0.000020 0.955463 -25.151156 10.027384 4.969532 0.000000 0.000240 1.429952 0.000002 0.000001 -0.000005 0.296234 0.000619 -0.349928 0.861177 -15.383895 3.243097 0.938768 0.000001 0.000000 147.947102 121.017961 -146.974114 2.873482 -0.100142 -0.001596 -0.903794 0.520105 130.507771 2.303204 0.062999 -0.002709 -9.569254 -34.783380 10.754661 -0.296234 0.000618 -0.349926 -0.196491 19.052200 0.601978 -0.917745 0.000000 -0.000001 -93.359677 -49.224224 -64.390338 -2.835648 -0.009101 -0.053202 0.608009 -1.385335 -76.709069 -2.429365 -0.003951 -0.045618 -2.902276 29.766955 -31.291603 0.000000 0.000618 1.184893 1.903539 6.167692 -0.986768 0.881812 -0.006978 -0.803126 20.941377 -12.709161 -27.249072 -0.000001 -0.015873 -2.979393 -49.041448 -0.000047 -0.000007 -0.000001 -0.049549 -2.865818 22.458890 2.424238 -11.047677 -0.762554 0.041686 -0.629133 11.656495 5.440146 32.588407 0.109557 0.030316 -2.863991 -31.968898 0.367074 -1.150224 0.109504 -0.019502 -2.864088 7.144774 9.505875 9.518927 
0.000001 -0.000001 2.772804 -0.000000 0.000000 -0.000000 -2.262404 1.563300 3.387206 0.518312 -3.075255 -526.701787 2.656553 -0.204828 0.000002 0.000004 10.643561 0.000010 -0.132761 -0.000760 0.706461 -2.403751 -5.604551 -0.011916 0.000055 -0.000015 0.955480 -26.028825 10.826174 3.703062 0.000000 0.000241 1.429953 -0.000004 0.000001 -0.000002 0.296235 0.000619 -0.349927 0.858406 -12.919819 3.832081 0.938770 0.000001 -0.000001 146.099399 118.537223 -146.707942 2.873483 -0.100143 -0.001595 -0.864102 0.545858 125.783753 2.303205 0.062999 -0.002710 -12.689573 -32.948395 6.638310 -0.296234 0.000618 -0.349926 -0.187479 18.783550 0.580588 -0.917743 0.000000 -0.000003 -92.555094 -56.149199 -65.848051 -2.835647 -0.009099 -0.053201 0.606260 -1.391916 -77.029337 -2.429366 -0.003951 -0.045618 -1.784095 30.688067 -32.591009 0.000001 0.000619 1.184895 -5.342403 4.094918 1.976099 0.886305 0.030565 -0.796149 21.815307 -12.164324 -21.777037 -0.000001 -0.015874 -2.979393 -49.389583 -0.000045 -0.000007 -0.000002 -0.049549 -2.865818 28.282770 2.869469 -10.685217 -0.759964 0.030234 -0.634634 17.570298 9.148943 35.542911 0.109557 0.030316 -2.863991 -45.979809 0.715762 -1.555786 0.109504 -0.019501 -2.864087 4.469763 11.002502 11.569514 
0.000001 -0.000001 2.772804 -0.000000 0.000000 -0.000000 -2.180714 1.549717 3.315623 0.046424 -3.382537 -530.377358 2.643295 -0.217429 0.000002 0.000010 10.276854 0.000011 -0.128256 -0.000760 0.707304 -3.090795 -4.974032 -1.512752 0.000039 -0.000011 0.955489 -26.587790 11.609567 2.647864 -0.000000 0.000241 1.429952 0.000000 -0.000002 -0.000004 0.296235 0.000619 -0.349926 0.663119 -11.234721 3.391439 0.938768 0.000001 -0.000000 145.519803 117.769605 -147.209168 2.873482 -0.100143 -0.001596 -0.817682 0.570524 120.535162 2.303205 0.063001 -0.002709 -16.320064 -32.388433 2.493163 -0.296233 0.000618 -0.349925 0.081499 17.863981 -0.271365 -0.917745 -0.000001 -0.000003 -105.301949 -76.290590 -80.049482 -2.835649 -0.009099 -0.053200 0.595643 -1.429228 -78.852874 -2.429367 -0.003951 -0.045618 1.578899 29.292994 -36.010837 0.000001 0.000619 1.184893 -9.841410 1.773623 3.952928 0.889160 0.062380 -0.786389 23.617040 -10.862138 -13.706538 -0.000001 -0.015873 -2.979393 -50.726326 -0.000046 -0.000008 -0.000001 -0.049549 -2.865818 31.512020 4.118708 -13.285233 -0.758210 0.018884 -0.642993 20.035504 10.883327 37.281293 0.109557 0.030316 -2.863991 -50.690000 0.853910 -1.671510 0.109504 -0.019502 -2.864087 4.288230 11.594008 13.368920 
